<?xml version="1.0" encoding="UTF-8"?>
<!DOCTYPE svg PUBLIC "-//W3C//DTD SVG 1.1//EN" "http://www.w3.org/Graphics/SVG/1.1/DTD/svg11.dtd">
<svg xmlns="http://www.w3.org/2000/svg" version="1.1" width="500px" height="500px" style="shape-rendering:geometricPrecision; text-rendering:geometricPrecision; image-rendering:optimizeQuality; fill-rule:evenodd; clip-rule:evenodd" xmlns:xlink="http://www.w3.org/1999/xlink">
<g><path style="opacity:0.004" fill="#fefffe" d="M 256.5,0.5 C 257.833,1.16667 257.833,1.16667 256.5,0.5 Z"/></g>
<g><path style="opacity:0.004" fill="#fefffe" d="M 107.5,5.5 C 108.833,6.16667 108.833,6.16667 107.5,5.5 Z"/></g>
<g><path style="opacity:0.004" fill="#fefffe" d="M 9.5,8.5 C 10.8333,9.16667 10.8333,9.16667 9.5,8.5 Z"/></g>
<g><path style="opacity:0.004" fill="#fefffe" d="M 238.5,25.5 C 239.833,26.1667 239.833,26.1667 238.5,25.5 Z"/></g>
<g><path style="opacity:0.004" fill="#fefffe" d="M 211.5,28.5 C 212.833,29.1667 212.833,29.1667 211.5,28.5 Z"/></g>
<g><path style="opacity:0.004" fill="#fefffe" d="M 390.5,37.5 C 391.833,38.1667 391.833,38.1667 390.5,37.5 Z"/></g>
<g><path style="opacity:0.004" fill="#fefffe" d="M 297.5,47.5 C 298.833,48.1667 298.833,48.1667 297.5,47.5 Z"/></g>
<g><path style="opacity:0.004" fill="#fefffe" d="M 272.5,48.5 C 273.833,49.1667 273.833,49.1667 272.5,48.5 Z"/></g>
<g><path style="opacity:0.004" fill="#fefffe" d="M 477.5,51.5 C 478.833,52.1667 478.833,52.1667 477.5,51.5 Z"/></g>
<g><path style="opacity:0.004" fill="#fefffe" d="M 422.5,54.5 C 423.833,55.1667 423.833,55.1667 422.5,54.5 Z"/></g>
<g><path style="opacity:0.004" fill="#fefffe" d="M 423.5,57.5 C 424.833,58.1667 424.833,58.1667 423.5,57.5 Z"/></g>
<g><path style="opacity:0.004" fill="#fefffe" d="M 378.5,58.5 C 379.833,59.1667 379.833,59.1667 378.5,58.5 Z"/></g>
<g><path style="opacity:0.004" fill="#fefffe" d="M 331.5,65.5 C 332.833,66.1667 332.833,66.1667 331.5,65.5 Z"/></g>
<g><path style="opacity:0.004" fill="#fefffe" d="M 39.5,79.5 C 40.8333,80.1667 40.8333,80.1667 39.5,79.5 Z"/></g>
<g><path style="opacity:0.004" fill="#fefffe" d="M 79.5,94.5 C 80.8333,95.1667 80.8333,95.1667 79.5,94.5 Z"/></g>
<g><path style="opacity:0.004" fill="#fefffe" d="M 416.5,101.5 C 417.833,102.167 417.833,102.167 416.5,101.5 Z"/></g>
<g><path style="opacity:0.004" fill="#fefffe" d="M 345.5,110.5 C 346.833,111.167 346.833,111.167 345.5,110.5 Z"/></g>
<g><path style="opacity:0.004" fill="#fefffe" d="M 63.5,114.5 C 64.8333,115.167 64.8333,115.167 63.5,114.5 Z"/></g>
<g><path style="opacity:0.004" fill="#fefffe" d="M 418.5,115.5 C 419.833,116.167 419.833,116.167 418.5,115.5 Z"/></g>
<g><path style="opacity:0.004" fill="#fefffe" d="M 347.5,116.5 C 348.833,117.167 348.833,117.167 347.5,116.5 Z"/></g>
<g><path style="opacity:0.004" fill="#fefffe" d="M 76.5,119.5 C 77.8333,120.167 77.8333,120.167 76.5,119.5 Z"/></g>
<g><path style="opacity:0.004" fill="#fefffe" d="M 432.5,129.5 C 433.833,130.167 433.833,130.167 432.5,129.5 Z"/></g>
<g><path style="opacity:0.004" fill="#fefffe" d="M 497.5,129.5 C 498.833,130.167 498.833,130.167 497.5,129.5 Z"/></g>
<g><path style="opacity:0.004" fill="#fefffe" d="M 234.5,137.5 C 235.833,138.167 235.833,138.167 234.5,137.5 Z"/></g>
<g><path style="opacity:0.004" fill="#fefffe" d="M 142.5,142.5 C 143.833,143.167 143.833,143.167 142.5,142.5 Z"/></g>
<g><path style="opacity:0.004" fill="#fefffe" d="M 351.5,149.5 C 352.833,150.167 352.833,150.167 351.5,149.5 Z"/></g>
<g><path style="opacity:0.004" fill="#fefffe" d="M 421.5,150.5 C 422.833,151.167 422.833,151.167 421.5,150.5 Z"/></g>
<g><path style="opacity:0.004" fill="#fefffe" d="M 380.5,157.5 C 381.833,158.167 381.833,158.167 380.5,157.5 Z"/></g>
<g><path style="opacity:0.004" fill="#fefffe" d="M 116.5,158.5 C 117.833,159.167 117.833,159.167 116.5,158.5 Z"/></g>
<g><path style="opacity:0.004" fill="#fefffe" d="M 186.5,158.5 C 187.833,159.167 187.833,159.167 186.5,158.5 Z"/></g>
<g><path style="opacity:0.004" fill="#fefffe" d="M 79.5,159.5 C 80.8333,160.167 80.8333,160.167 79.5,159.5 Z"/></g>
<g><path style="opacity:0.004" fill="#fefffe" d="M 186.5,167.5 C 187.833,168.167 187.833,168.167 186.5,167.5 Z"/></g>
<g><path style="opacity:0.004" fill="#fefffe" d="M 379.5,167.5 C 380.833,168.167 380.833,168.167 379.5,167.5 Z"/></g>
<g><path style="opacity:0.004" fill="#fefffe" d="M 390.5,171.5 C 391.833,172.167 391.833,172.167 390.5,171.5 Z"/></g>
<g><path style="opacity:0.004" fill="#fefffe" d="M 78.5,173.5 C 79.8333,174.167 79.8333,174.167 78.5,173.5 Z"/></g>
<g><path style="opacity:0.004" fill="#fefffe" d="M 62.5,179.5 C 63.8333,180.167 63.8333,180.167 62.5,179.5 Z"/></g>
<g><path style="opacity:0.004" fill="#fefffe" d="M 79.5,190.5 C 80.8333,191.167 80.8333,191.167 79.5,190.5 Z"/></g>
<g><path style="opacity:0.004" fill="#fefffe" d="M 495.5,192.5 C 496.833,193.167 496.833,193.167 495.5,192.5 Z"/></g>
<g><path style="opacity:0.004" fill="#fefffe" d="M 135.5,193.5 C 136.833,194.167 136.833,194.167 135.5,193.5 Z"/></g>
<g><path style="opacity:0.004" fill="#fefffe" d="M 499.5,194.5 C 499.5,194.833 499.5,195.167 499.5,195.5C 498.83,195.019 498.83,194.685 499.5,194.5 Z"/></g>
<g><path style="opacity:0.004" fill="#fefffe" d="M 33.5,198.5 C 34.8333,199.167 34.8333,199.167 33.5,198.5 Z"/></g>
<g><path style="opacity:0.004" fill="#fefffe" d="M 478.5,199.5 C 479.833,200.167 479.833,200.167 478.5,199.5 Z"/></g>
<g><path style="opacity:0.004" fill="#fefffe" d="M 139.5,202.5 C 140.833,203.167 140.833,203.167 139.5,202.5 Z"/></g>
<g><path style="opacity:0.675" fill="#ddbfef" d="M 295.5,207.5 C 291.326,205.936 286.993,205.269 282.5,205.5C 281.833,205.5 281.167,205.5 280.5,205.5C 281.946,204.06 283.779,203.393 286,203.5C 289.88,203.612 293.047,204.946 295.5,207.5 Z"/></g>
<g><path style="opacity:1" fill="#b78ae6" d="M 280.5,205.5 C 281.167,205.5 281.833,205.5 282.5,205.5C 280.833,206.833 279.167,208.167 277.5,209.5C 276.974,211.23 275.974,212.564 274.5,213.5C 274.167,213.5 273.833,213.5 273.5,213.5C 274.431,209.571 276.764,206.905 280.5,205.5 Z"/></g>
<g><path style="opacity:1" fill="#ac70f7" d="M 282.5,205.5 C 286.993,205.269 291.326,205.936 295.5,207.5C 296.833,208.167 296.833,208.833 295.5,209.5C 293.896,210.287 293.229,211.62 293.5,213.5C 293.672,214.492 293.338,215.158 292.5,215.5C 289.612,214.99 287.279,215.656 285.5,217.5C 283.577,221.029 282.911,225.029 283.5,229.5C 282.35,224.684 282.184,219.684 283,214.5C 284.011,213.663 285.178,213.33 286.5,213.5C 286.5,212.167 286.5,210.833 286.5,209.5C 284.173,209.247 282.173,209.914 280.5,211.5C 279.735,210.388 278.735,209.721 277.5,209.5C 279.167,208.167 280.833,206.833 282.5,205.5 Z"/></g>
<g><path style="opacity:0.345" fill="#e0c8f9" d="M 258.5,208.5 C 257.833,209.833 256.833,210.833 255.5,211.5C 255.5,209.5 256.5,208.5 258.5,208.5 Z"/></g>
<g><path style="opacity:0.333" fill="#e5c2f2" d="M 295.5,209.5 C 295.34,211.153 294.674,212.486 293.5,213.5C 293.229,211.62 293.896,210.287 295.5,209.5 Z"/></g>
<g><path style="opacity:0.135" fill="#e7cffc" d="M 170.5,209.5 C 170.167,209.5 169.833,209.5 169.5,209.5C 166.038,208.518 162.371,208.185 158.5,208.5C 157.503,226.993 157.17,245.659 157.5,264.5C 156.503,245.674 156.17,226.674 156.5,207.5C 161.214,207.647 165.881,207.314 170.5,206.5C 170.5,207.5 170.5,208.5 170.5,209.5 Z"/></g>
<g><path style="opacity:1" fill="#c19ced" d="M 258.5,221.5 C 260.5,221.5 262.5,221.5 264.5,221.5C 264.5,220.167 264.5,218.833 264.5,217.5C 265.5,217.5 266.5,217.5 267.5,217.5C 268.817,210.309 265.817,207.309 258.5,208.5C 261.295,206.411 264.295,206.578 267.5,209C 270.167,213 270.167,217 267.5,221C 264.44,222.663 261.44,222.83 258.5,221.5 Z"/></g>
<g><path style="opacity:1" fill="#ac6afd" d="M 162.5,214.5 C 162.918,215.222 163.584,215.722 164.5,216C 163.903,217.628 164.237,219.295 165.5,221C 164.692,221.308 164.025,221.808 163.5,222.5C 164.814,228.654 164.814,234.821 163.5,241C 163.977,246.145 164.977,251.145 166.5,256C 164.5,256.667 162.5,256.667 160.5,256C 161.885,254.035 161.718,252.202 160,250.5C 159.722,251.416 159.222,252.082 158.5,252.5C 158.5,241.833 158.5,231.167 158.5,220.5C 159.166,217.642 159.833,214.642 160.5,211.5C 161.919,212.005 162.585,213.005 162.5,214.5 Z"/></g>
<g><path style="opacity:0.09" fill="#e8d3f5" d="M 292.5,215.5 C 290.285,216.268 287.952,216.935 285.5,217.5C 287.279,215.656 289.612,214.99 292.5,215.5 Z"/></g>
<g><path style="opacity:1" fill="#ae71f5" d="M 258.5,208.5 C 265.817,207.309 268.817,210.309 267.5,217.5C 266.5,217.5 265.5,217.5 264.5,217.5C 264.5,218.833 264.5,220.167 264.5,221.5C 262.5,221.5 260.5,221.5 258.5,221.5C 258.027,220.094 257.027,219.427 255.5,219.5C 254.233,216.728 254.233,214.061 255.5,211.5C 256.833,210.833 257.833,209.833 258.5,208.5 Z"/></g>
<g><path style="opacity:0.533" fill="#e3c4f3" d="M 255.5,219.5 C 257.027,219.427 258.027,220.094 258.5,221.5C 256.973,221.573 255.973,220.906 255.5,219.5 Z"/></g>
<g><path style="opacity:1" fill="#ac69fd" d="M 277.5,209.5 C 278.735,209.721 279.735,210.388 280.5,211.5C 282.173,209.914 284.173,209.247 286.5,209.5C 286.5,210.833 286.5,212.167 286.5,213.5C 285.178,213.33 284.011,213.663 283,214.5C 282.184,219.684 282.35,224.684 283.5,229.5C 286.625,230.479 289.958,230.813 293.5,230.5C 294.808,231.232 296.142,232.066 297.5,233C 296.675,234.688 295.675,234.855 294.5,233.5C 291.867,237.27 289.034,237.27 286,233.5C 284.274,234.648 284.441,235.815 286.5,237C 282.933,238.075 279.933,237.242 277.5,234.5C 278.167,233.5 278.833,232.5 279.5,231.5C 276.752,230.172 275.085,228.006 274.5,225C 275.637,221.216 275.637,217.382 274.5,213.5C 275.974,212.564 276.974,211.23 277.5,209.5 Z"/></g>
<g><path style="opacity:0.004" fill="#fefffe" d="M 295.5,220.5 C 296.833,221.167 296.833,221.167 295.5,220.5 Z"/></g>
<g><path style="opacity:1" fill="#aa6df5" d="M 158.5,208.5 C 162.371,208.185 166.038,208.518 169.5,209.5C 169.5,224.167 169.5,238.833 169.5,253.5C 169.043,249.119 168.043,244.785 166.5,240.5C 167.151,230.736 167.485,221.069 167.5,211.5C 165.041,211.31 163.374,212.31 162.5,214.5C 162.585,213.005 161.919,212.005 160.5,211.5C 159.833,214.642 159.166,217.642 158.5,220.5C 158.5,216.5 158.5,212.5 158.5,208.5 Z"/></g>
<g><path style="opacity:0.036" fill="#f5d4fe" d="M 272.5,217.5 C 272.5,221.5 272.5,225.5 272.5,229.5C 272.167,229.5 271.833,229.5 271.5,229.5C 266.167,229.5 260.833,229.5 255.5,229.5C 260.64,228.512 265.974,228.179 271.5,228.5C 271.185,224.629 271.518,220.962 272.5,217.5 Z"/></g>
<g><path style="opacity:0.038" fill="#fee0ff" d="M 284.5,226.5 C 288.717,228.036 293.05,229.036 297.5,229.5C 293.167,229.5 288.833,229.5 284.5,229.5C 284.5,228.5 284.5,227.5 284.5,226.5 Z"/></g>
<g><path style="opacity:0.016" fill="#f7eafd" d="M 315.5,229.5 C 319.981,228.352 324.648,228.185 329.5,229C 330.287,230.313 329.954,231.48 328.5,232.5C 328.5,231.5 328.5,230.5 328.5,229.5C 324.167,229.5 319.833,229.5 315.5,229.5 Z"/></g>
<g><path style="opacity:0.506" fill="#dcbef1" d="M 251.5,232.5 C 250.167,232.167 248.833,231.833 247.5,231.5C 243.282,228.394 238.615,227.728 233.5,229.5C 240.084,226.409 246.084,227.409 251.5,232.5 Z"/></g>
<g><path style="opacity:0.945" fill="#b286e4" d="M 285.5,217.5 C 284.701,220.43 284.368,223.43 284.5,226.5C 284.5,227.5 284.5,228.5 284.5,229.5C 288.833,229.5 293.167,229.5 297.5,229.5C 298.906,229.973 299.573,230.973 299.5,232.5C 297.858,230.919 295.858,230.253 293.5,230.5C 289.958,230.813 286.625,230.479 283.5,229.5C 282.911,225.029 283.577,221.029 285.5,217.5 Z"/></g>
<g><path style="opacity:0.922" fill="#af86e4" d="M 315.5,229.5 C 319.833,229.5 324.167,229.5 328.5,229.5C 328.5,230.5 328.5,231.5 328.5,232.5C 328.672,233.492 328.338,234.158 327.5,234.5C 327.5,233.167 327.5,231.833 327.5,230.5C 323.5,230.5 319.5,230.5 315.5,230.5C 315.715,232.179 315.048,233.179 313.5,233.5C 313.66,231.847 314.326,230.514 315.5,229.5 Z"/></g>
<g><path style="opacity:1" fill="#ad69fe" d="M 271.5,229.5 C 271.833,229.5 272.167,229.5 272.5,229.5C 275.487,229.422 276.153,230.589 274.5,233C 276.201,234.86 277.201,237.027 277.5,239.5C 276.833,239.5 276.167,239.5 275.5,239.5C 275.719,238.325 275.386,237.325 274.5,236.5C 272.227,235.721 270.394,234.388 269,232.5C 267.189,233.078 265.355,233.578 263.5,234C 266.708,234.887 266.708,236.553 263.5,239C 264.766,241.383 265.432,244.05 265.5,247C 265.333,249.5 265.167,252 265,254.5C 263.989,255.337 262.822,255.67 261.5,255.5C 261.666,250.489 261.499,245.489 261,240.5C 260.617,239.944 260.117,239.611 259.5,239.5C 259.5,236.5 259.5,233.5 259.5,230.5C 263.702,230.817 267.702,230.483 271.5,229.5 Z"/></g>
<g><path style="opacity:1" fill="#aa72f1" d="M 247.5,231.5 C 242.556,229.819 238.222,230.819 234.5,234.5C 237.138,235.742 239.471,237.409 241.5,239.5C 240.833,239.5 240.167,239.5 239.5,239.5C 238.866,238.053 237.699,237.387 236,237.5C 234.624,237.684 233.791,238.351 233.5,239.5C 233.167,239.5 232.833,239.5 232.5,239.5C 231.5,239.5 230.5,239.5 229.5,239.5C 229.329,237.007 230.329,235.174 232.5,234C 230.527,233.505 228.527,233.338 226.5,233.5C 226.5,232.5 226.5,231.5 226.5,230.5C 220.491,230.334 214.491,230.501 208.5,231C 207.944,231.383 207.611,231.883 207.5,232.5C 206.71,233.609 206.21,234.942 206,236.5C 205.487,235.473 204.987,234.473 204.5,233.5C 205.29,232.206 206.29,231.039 207.5,230C 214.826,229.5 222.159,229.334 229.5,229.5C 229.328,230.492 229.662,231.158 230.5,231.5C 232.027,231.573 233.027,230.906 233.5,229.5C 238.615,227.728 243.282,228.394 247.5,231.5 Z"/></g>
<g><path style="opacity:0.635" fill="#dabbf3" d="M 233.5,229.5 C 233.027,230.906 232.027,231.573 230.5,231.5C 230.973,230.094 231.973,229.427 233.5,229.5 Z"/></g>
<g><path style="opacity:1" fill="#ac74f0" d="M 259.5,230.5 C 259.5,233.5 259.5,236.5 259.5,239.5C 258.487,246.989 257.82,254.656 257.5,262.5C 260.5,262.5 263.5,262.5 266.5,262.5C 266.334,254.16 266.5,245.827 267,237.5C 269.235,236.02 271.068,236.353 272.5,238.5C 270.833,238.5 269.167,238.5 267.5,238.5C 267.5,247.167 267.5,255.833 267.5,264.5C 264.148,265.707 260.814,265.707 257.5,264.5C 257.5,263.833 257.167,263.5 256.5,263.5C 256.5,252.5 256.5,241.5 256.5,230.5C 257.5,230.5 258.5,230.5 259.5,230.5 Z"/></g>
<g><path style="opacity:1" fill="#ab6ef8" d="M 327.5,234.5 C 324.92,236.089 323.587,238.422 323.5,241.5C 323.008,243.819 322.008,245.819 320.5,247.5C 318.926,248.984 317.593,250.651 316.5,252.5C 316.84,248.158 318.507,244.491 321.5,241.5C 319.85,238.927 317.683,236.927 315,235.5C 314.316,236.784 314.483,237.951 315.5,239C 314.552,239.483 313.552,239.649 312.5,239.5C 313.15,237.565 313.483,235.565 313.5,233.5C 315.048,233.179 315.715,232.179 315.5,230.5C 319.5,230.5 323.5,230.5 327.5,230.5C 327.5,231.833 327.5,233.167 327.5,234.5 Z"/></g>
<g><path style="opacity:1" fill="#ac69fd" d="M 247.5,231.5 C 248.833,231.833 250.167,232.167 251.5,232.5C 252.219,234.764 252.552,237.097 252.5,239.5C 252.666,246.508 252.5,253.508 252,260.5C 249.959,261.423 247.792,261.756 245.5,261.5C 245.34,259.801 245.506,258.134 246,256.5C 247.011,257.337 248.178,257.67 249.5,257.5C 249.244,255.063 248.577,252.729 247.5,250.5C 249.151,248.598 249.484,246.598 248.5,244.5C 247.349,243.269 246.183,243.269 245,244.5C 244.722,243.584 244.222,242.918 243.5,242.5C 243.715,240.821 243.048,239.821 241.5,239.5C 239.471,237.409 237.138,235.742 234.5,234.5C 238.222,230.819 242.556,229.819 247.5,231.5 Z"/></g>
<g><path style="opacity:1" fill="#aa6cf8" d="M 204.5,233.5 C 204.987,234.473 205.487,235.473 206,236.5C 206.21,234.942 206.71,233.609 207.5,232.5C 207.5,233.5 207.5,234.5 207.5,235.5C 210.525,235.123 213.525,234.956 216.5,235C 215.833,235.333 215.167,235.667 214.5,236C 215.737,236.232 216.737,236.732 217.5,237.5C 212.916,238.277 208.25,238.777 203.5,239C 202.62,240.356 202.286,241.856 202.5,243.5C 201.509,249.979 201.176,256.646 201.5,263.5C 186.99,263.829 172.657,263.496 158.5,262.5C 168.839,262.666 179.172,262.5 189.5,262C 188.409,259.893 188.409,257.393 189.5,254.5C 182.978,254.823 176.645,254.49 170.5,253.5C 176.833,253.5 183.167,253.5 189.5,253.5C 189.833,253.5 190.167,253.5 190.5,253.5C 191.783,256.01 192.783,258.677 193.5,261.5C 193.363,262.78 195.697,263.113 200.5,262.5C 200.666,255.159 200.5,247.826 200,240.5C 197.943,241.978 196.61,243.978 196,246.5C 194.165,244.551 192.999,242.217 192.5,239.5C 191.818,240.243 191.151,240.909 190.5,241.5C 190.5,237.833 190.5,234.167 190.5,230.5C 193.85,230.335 197.183,230.502 200.5,231C 201.025,233.764 202.358,234.598 204.5,233.5 Z"/></g>
<g><path style="opacity:0.467" fill="#d7baf0" d="M 239.5,239.5 C 237.451,238.359 235.451,238.359 233.5,239.5C 233.791,238.351 234.624,237.684 236,237.5C 237.699,237.387 238.866,238.053 239.5,239.5 Z"/></g>
<g><path style="opacity:1" fill="#ac69fd" d="M 281.5,262.5 C 280.167,262.5 278.833,262.5 277.5,262.5C 275.757,260.874 275.257,258.874 276,256.5C 276.914,257.654 277.747,257.487 278.5,256C 277.552,255.517 276.552,255.351 275.5,255.5C 275.5,250.167 275.5,244.833 275.5,239.5C 276.167,239.5 276.833,239.5 277.5,239.5C 279.153,237.161 280.487,237.661 281.5,241C 280.347,248.111 280.347,255.278 281.5,262.5 Z"/></g>
<g><path style="opacity:0.923" fill="#cea8ef" d="M 229.5,229.5 C 222.159,229.334 214.826,229.5 207.5,230C 206.29,231.039 205.29,232.206 204.5,233.5C 202.358,234.598 201.025,233.764 200.5,231C 197.183,230.502 193.85,230.335 190.5,230.5C 190.5,234.167 190.5,237.833 190.5,241.5C 190.5,245.5 190.5,249.5 190.5,253.5C 190.167,253.5 189.833,253.5 189.5,253.5C 189.5,252.833 189.5,252.167 189.5,251.5C 189.132,243.926 189.132,236.259 189.5,228.5C 193.514,228.334 197.514,228.501 201.5,229C 202.191,230.067 202.691,231.234 203,232.5C 205.276,229.112 208.442,227.446 212.5,227.5C 218.339,227.969 224.006,228.635 229.5,229.5 Z"/></g>
<g><path style="opacity:1" fill="#ac6afc" d="M 229.5,239.5 C 229.567,240.959 229.234,242.292 228.5,243.5C 227.364,249.641 226.697,255.974 226.5,262.5C 223.833,262.5 221.167,262.5 218.5,262.5C 218.826,254.316 218.492,246.316 217.5,238.5C 217.5,238.167 217.5,237.833 217.5,237.5C 216.737,236.732 215.737,236.232 214.5,236C 215.167,235.667 215.833,235.333 216.5,235C 213.525,234.956 210.525,235.123 207.5,235.5C 207.5,234.5 207.5,233.5 207.5,232.5C 207.611,231.883 207.944,231.383 208.5,231C 214.491,230.501 220.491,230.334 226.5,230.5C 226.5,231.5 226.5,232.5 226.5,233.5C 228.527,233.338 230.527,233.505 232.5,234C 230.329,235.174 229.329,237.007 229.5,239.5 Z"/></g>
<g><path style="opacity:0.992" fill="#c29aec" d="M 299.5,232.5 C 302.258,235.678 304.258,239.345 305.5,243.5C 305.167,243.5 304.833,243.5 304.5,243.5C 301.52,240.493 299.853,236.826 299.5,232.5 Z"/></g>
<g><path style="opacity:0.965" fill="#cfadee" d="M 327.5,234.5 C 326.921,237.331 325.588,239.664 323.5,241.5C 323.587,238.422 324.92,236.089 327.5,234.5 Z"/></g>
<g><path style="opacity:1" fill="#a772e9" d="M 272.5,238.5 C 273.492,246.316 273.826,254.316 273.5,262.5C 274.833,262.5 276.167,262.5 277.5,262.5C 278.833,262.5 280.167,262.5 281.5,262.5C 282.167,254.5 282.833,246.5 283.5,238.5C 283.5,246.833 283.5,255.167 283.5,263.5C 280.5,263.5 277.5,263.5 274.5,263.5C 272.532,255.567 271.865,247.234 272.5,238.5 Z"/></g>
<g><path style="opacity:1" fill="#ab6bfc" d="M 275.5,239.5 C 275.5,244.833 275.5,250.167 275.5,255.5C 276.552,255.351 277.552,255.517 278.5,256C 277.747,257.487 276.914,257.654 276,256.5C 275.257,258.874 275.757,260.874 277.5,262.5C 276.167,262.5 274.833,262.5 273.5,262.5C 273.826,254.316 273.492,246.316 272.5,238.5C 271.068,236.353 269.235,236.02 267,237.5C 266.5,245.827 266.334,254.16 266.5,262.5C 263.5,262.5 260.5,262.5 257.5,262.5C 257.82,254.656 258.487,246.989 259.5,239.5C 260.117,239.611 260.617,239.944 261,240.5C 261.499,245.489 261.666,250.489 261.5,255.5C 262.822,255.67 263.989,255.337 265,254.5C 265.167,252 265.333,249.5 265.5,247C 265.432,244.05 264.766,241.383 263.5,239C 266.708,236.553 266.708,234.887 263.5,234C 265.355,233.578 267.189,233.078 269,232.5C 270.394,234.388 272.227,235.721 274.5,236.5C 275.386,237.325 275.719,238.325 275.5,239.5 Z"/></g>
<g><path style="opacity:0.343" fill="#d7b5f8" d="M 272.5,238.5 C 271.865,247.234 272.532,255.567 274.5,263.5C 274.5,263.833 274.5,264.167 274.5,264.5C 273.603,265.598 272.77,265.598 272,264.5C 271.5,256.173 271.334,247.84 271.5,239.5C 270.5,239.5 269.5,239.5 268.5,239.5C 268.826,248.017 268.493,256.35 267.5,264.5C 267.5,255.833 267.5,247.167 267.5,238.5C 269.167,238.5 270.833,238.5 272.5,238.5 Z"/></g>
<g><path style="opacity:0.782" fill="#ceb1e8" d="M 283.5,238.5 C 285.415,238.216 287.081,238.549 288.5,239.5C 287.167,239.5 285.833,239.5 284.5,239.5C 285.833,248.167 285.833,256.833 284.5,265.5C 281.061,265.747 277.728,265.414 274.5,264.5C 274.5,264.167 274.5,263.833 274.5,263.5C 277.5,263.5 280.5,263.5 283.5,263.5C 283.5,255.167 283.5,246.833 283.5,238.5 Z"/></g>
<g><path style="opacity:1" fill="#ab6cf9" d="M 273.5,213.5 C 273.833,213.5 274.167,213.5 274.5,213.5C 275.637,217.382 275.637,221.216 274.5,225C 275.085,228.006 276.752,230.172 279.5,231.5C 278.833,232.5 278.167,233.5 277.5,234.5C 279.933,237.242 282.933,238.075 286.5,237C 284.441,235.815 284.274,234.648 286,233.5C 289.034,237.27 291.867,237.27 294.5,233.5C 295.675,234.855 296.675,234.688 297.5,233C 296.142,232.066 294.808,231.232 293.5,230.5C 295.858,230.253 297.858,230.919 299.5,232.5C 299.853,236.826 301.52,240.493 304.5,243.5C 304.5,244.833 304.5,246.167 304.5,247.5C 303.685,246.571 302.852,245.571 302,244.5C 301.585,246.291 300.585,247.624 299,248.5C 298.719,250.905 299.385,250.905 301,248.5C 301.167,248.833 301.333,249.167 301.5,249.5C 300.05,250.85 299.383,252.516 299.5,254.5C 298.247,251.576 296.247,249.243 293.5,247.5C 293.087,245.11 292.421,242.777 291.5,240.5C 290.583,239.873 289.583,239.539 288.5,239.5C 287.081,238.549 285.415,238.216 283.5,238.5C 282.833,246.5 282.167,254.5 281.5,262.5C 280.347,255.278 280.347,248.111 281.5,241C 280.487,237.661 279.153,237.161 277.5,239.5C 277.201,237.027 276.201,234.86 274.5,233C 276.153,230.589 275.487,229.422 272.5,229.5C 272.5,225.5 272.5,221.5 272.5,217.5C 272.232,215.901 272.566,214.568 273.5,213.5 Z"/></g>
<g><path style="opacity:1" fill="#c69bf1" d="M 288.5,239.5 C 289.583,239.539 290.583,239.873 291.5,240.5C 292.421,242.777 293.087,245.11 293.5,247.5C 291.347,245.206 289.68,242.54 288.5,239.5 Z"/></g>
<g><path style="opacity:1" fill="#ab6bfb" d="M 316.5,252.5 C 315.549,253.919 315.216,255.585 315.5,257.5C 315.5,258.167 315.167,258.5 314.5,258.5C 312.726,259.37 311.393,260.703 310.5,262.5C 310.586,260.323 311.253,258.323 312.5,256.5C 309.322,254.816 307.655,252.149 307.5,248.5C 309.334,245.739 311.001,242.739 312.5,239.5C 313.552,239.649 314.552,239.483 315.5,239C 314.483,237.951 314.316,236.784 315,235.5C 317.683,236.927 319.85,238.927 321.5,241.5C 318.507,244.491 316.84,248.158 316.5,252.5 Z"/></g>
<g><path style="opacity:1" fill="#ac6afd" d="M 190.5,253.5 C 190.5,249.5 190.5,245.5 190.5,241.5C 191.151,240.909 191.818,240.243 192.5,239.5C 192.999,242.217 194.165,244.551 196,246.5C 196.61,243.978 197.943,241.978 200,240.5C 200.5,247.826 200.666,255.159 200.5,262.5C 195.697,263.113 193.363,262.78 193.5,261.5C 192.783,258.677 191.783,256.01 190.5,253.5 Z"/></g>
<g><path style="opacity:0.149" fill="#eec1fd" d="M 254.5,238.5 C 254.833,238.5 255.167,238.5 255.5,238.5C 255.174,247.017 255.507,255.35 256.5,263.5C 257.167,263.5 257.5,263.833 257.5,264.5C 256.798,265.116 255.798,265.116 254.5,264.5C 254.5,255.833 254.5,247.167 254.5,238.5 Z"/></g>
<g><path style="opacity:0.647" fill="#bf8af6" d="M 255.5,229.5 C 260.833,229.5 266.167,229.5 271.5,229.5C 267.702,230.483 263.702,230.817 259.5,230.5C 258.5,230.5 257.5,230.5 256.5,230.5C 256.5,241.5 256.5,252.5 256.5,263.5C 255.507,255.35 255.174,247.017 255.5,238.5C 255.5,235.5 255.5,232.5 255.5,229.5 Z"/></g>
<g><path style="opacity:0.732" fill="#c8a6ed" d="M 217.5,237.5 C 217.5,237.833 217.5,238.167 217.5,238.5C 217.5,246.833 217.5,255.167 217.5,263.5C 221.167,263.5 224.833,263.5 228.5,263.5C 228.5,256.833 228.5,250.167 228.5,243.5C 229.234,242.292 229.567,240.959 229.5,239.5C 230.5,239.5 231.5,239.5 232.5,239.5C 229.292,243.015 228.625,247.015 230.5,251.5C 230.085,256.085 229.418,260.585 228.5,265C 224.577,265.793 220.744,265.626 217,264.5C 216.667,256.5 216.333,248.5 216,240.5C 215.667,240.833 215.333,241.167 215,241.5C 210.083,238.387 205.917,239.053 202.5,243.5C 202.286,241.856 202.62,240.356 203.5,239C 208.25,238.777 212.916,238.277 217.5,237.5 Z"/></g>
<g><path style="opacity:1" fill="#b481f0" d="M 313.5,233.5 C 313.483,235.565 313.15,237.565 312.5,239.5C 311.001,242.739 309.334,245.739 307.5,248.5C 306.209,248.737 305.209,248.404 304.5,247.5C 304.5,246.167 304.5,244.833 304.5,243.5C 304.833,243.5 305.167,243.5 305.5,243.5C 306.222,243.918 306.722,244.584 307,245.5C 307.333,245.167 307.667,244.833 308,244.5C 309.565,240.598 311.398,236.931 313.5,233.5 Z"/></g>
<g><path style="opacity:1" fill="#c197ed" d="M 293.5,247.5 C 296.247,249.243 298.247,251.576 299.5,254.5C 299.5,254.833 299.5,255.167 299.5,255.5C 299.5,256.5 299.5,257.5 299.5,258.5C 297.25,255.001 295.25,251.335 293.5,247.5 Z"/></g>
<g><path style="opacity:0.533" fill="#dcbff2" d="M 337.5,250.5 C 333.885,250.155 330.552,250.822 327.5,252.5C 327.953,251.542 328.619,250.708 329.5,250C 331.433,249.749 333.266,249.249 335,248.5C 335.995,249.066 336.828,249.733 337.5,250.5 Z"/></g>
<g><path style="opacity:1" fill="#ad69fe" d="M 169.5,253.5 C 169.833,253.5 170.167,253.5 170.5,253.5C 176.645,254.49 182.978,254.823 189.5,254.5C 188.409,257.393 188.409,259.893 189.5,262C 179.172,262.5 168.839,262.666 158.5,262.5C 158.5,259.167 158.5,255.833 158.5,252.5C 159.222,252.082 159.722,251.416 160,250.5C 161.718,252.202 161.885,254.035 160.5,256C 162.5,256.667 164.5,256.667 166.5,256C 164.977,251.145 163.977,246.145 163.5,241C 164.814,234.821 164.814,228.654 163.5,222.5C 164.025,221.808 164.692,221.308 165.5,221C 164.237,219.295 163.903,217.628 164.5,216C 163.584,215.722 162.918,215.222 162.5,214.5C 163.374,212.31 165.041,211.31 167.5,211.5C 167.485,221.069 167.151,230.736 166.5,240.5C 168.043,244.785 169.043,249.119 169.5,253.5 Z"/></g>
<g><path style="opacity:0.302" fill="#d3b7ef" d="M 169.5,209.5 C 169.833,209.5 170.167,209.5 170.5,209.5C 170.5,223.5 170.5,237.5 170.5,251.5C 176.89,252.637 183.223,252.637 189.5,251.5C 189.5,252.167 189.5,252.833 189.5,253.5C 183.167,253.5 176.833,253.5 170.5,253.5C 170.167,253.5 169.833,253.5 169.5,253.5C 169.5,238.833 169.5,224.167 169.5,209.5 Z"/></g>
<g><path style="opacity:0.875" fill="#b994df" d="M 251.5,232.5 C 253.539,233.911 254.539,235.911 254.5,238.5C 254.5,247.167 254.5,255.833 254.5,264.5C 250.844,264.955 246.844,265.289 242.5,265.5C 241.661,258.636 241.661,251.803 242.5,245C 241.876,242.915 240.876,241.082 239.5,239.5C 240.167,239.5 240.833,239.5 241.5,239.5C 243.048,239.821 243.715,240.821 243.5,242.5C 243.5,249.5 243.5,256.5 243.5,263.5C 246.833,263.5 250.167,263.5 253.5,263.5C 253.826,255.316 253.492,247.316 252.5,239.5C 252.552,237.097 252.219,234.764 251.5,232.5 Z"/></g>
<g><path style="opacity:1" fill="#aa6cf8" d="M 252.5,239.5 C 253.492,247.316 253.826,255.316 253.5,263.5C 250.167,263.5 246.833,263.5 243.5,263.5C 243.5,256.5 243.5,249.5 243.5,242.5C 244.222,242.918 244.722,243.584 245,244.5C 246.183,243.269 247.349,243.269 248.5,244.5C 249.484,246.598 249.151,248.598 247.5,250.5C 248.577,252.729 249.244,255.063 249.5,257.5C 248.178,257.67 247.011,257.337 246,256.5C 245.506,258.134 245.34,259.801 245.5,261.5C 247.792,261.756 249.959,261.423 252,260.5C 252.5,253.508 252.666,246.508 252.5,239.5 Z"/></g>
<g><path style="opacity:1" fill="#d2b0ee" d="M 320.5,247.5 C 319.341,251.151 317.674,254.485 315.5,257.5C 315.216,255.585 315.549,253.919 316.5,252.5C 317.593,250.651 318.926,248.984 320.5,247.5 Z"/></g>
<g><path style="opacity:1" fill="#ac69fd" d="M 304.5,247.5 C 305.209,248.404 306.209,248.737 307.5,248.5C 307.655,252.149 309.322,254.816 312.5,256.5C 311.253,258.323 310.586,260.323 310.5,262.5C 310.443,263.609 310.11,264.609 309.5,265.5C 308.624,265.631 307.957,265.298 307.5,264.5C 307.43,262.356 306.93,260.356 306,258.5C 305.223,261.429 305.39,264.263 306.5,267C 305.965,269.109 304.965,269.609 303.5,268.5C 302.184,264.942 301.351,260.942 301,256.5C 300.617,255.944 300.117,255.611 299.5,255.5C 299.5,255.167 299.5,254.833 299.5,254.5C 299.383,252.516 300.05,250.85 301.5,249.5C 301.333,249.167 301.167,248.833 301,248.5C 299.385,250.905 298.719,250.905 299,248.5C 300.585,247.624 301.585,246.291 302,244.5C 302.852,245.571 303.685,246.571 304.5,247.5 Z"/></g>
<g><path style="opacity:0.369" fill="#d8baf5" d="M 326.5,254.5 C 326.575,257.206 326.908,259.873 327.5,262.5C 325.416,260.007 325.083,257.34 326.5,254.5 Z"/></g>
<g><path style="opacity:1" fill="#a770ef" d="M 217.5,238.5 C 218.492,246.316 218.826,254.316 218.5,262.5C 221.167,262.5 223.833,262.5 226.5,262.5C 226.697,255.974 227.364,249.641 228.5,243.5C 228.5,250.167 228.5,256.833 228.5,263.5C 224.833,263.5 221.167,263.5 217.5,263.5C 217.5,255.167 217.5,246.833 217.5,238.5 Z"/></g>
<g><path style="opacity:1" fill="#ab6cf9" d="M 337.5,250.5 C 342.322,257.089 340.989,261.756 333.5,264.5C 331.307,264.281 329.307,263.615 327.5,262.5C 326.908,259.873 326.575,257.206 326.5,254.5C 326.328,253.508 326.662,252.842 327.5,252.5C 330.552,250.822 333.885,250.155 337.5,250.5 Z"/></g>
<g><path style="opacity:0.973" fill="#bd95e7" d="M 314.5,258.5 C 313.341,262.151 311.674,265.485 309.5,268.5C 309.5,267.5 309.5,266.5 309.5,265.5C 310.11,264.609 310.443,263.609 310.5,262.5C 311.393,260.703 312.726,259.37 314.5,258.5 Z"/></g>
<g><path style="opacity:0.94" fill="#b38be0" d="M 158.5,208.5 C 158.5,212.5 158.5,216.5 158.5,220.5C 158.5,231.167 158.5,241.833 158.5,252.5C 158.5,255.833 158.5,259.167 158.5,262.5C 172.657,263.496 186.99,263.829 201.5,263.5C 201.176,256.646 201.509,249.979 202.5,243.5C 202.962,251.008 202.462,258.342 201,265.5C 186.391,264.676 171.891,264.343 157.5,264.5C 157.17,245.659 157.503,226.993 158.5,208.5 Z"/></g>
<g><path style="opacity:0.935" fill="#c09de8" d="M 337.5,250.5 C 340.188,251.024 341.688,252.691 342,255.5C 342.101,264.406 337.935,267.573 329.5,265C 328.619,264.292 327.953,263.458 327.5,262.5C 329.307,263.615 331.307,264.281 333.5,264.5C 340.989,261.756 342.322,257.089 337.5,250.5 Z"/></g>
<g><path style="opacity:0.996" fill="#bd95ea" d="M 299.5,259.5 C 298.926,263.325 297.759,266.991 296,270.5C 295.329,271.252 294.496,271.586 293.5,271.5C 294.992,267.182 296.992,263.182 299.5,259.5 Z"/></g>
<g><path style="opacity:1" fill="#cca3f0" d="M 309.5,268.5 C 308.008,272.818 306.008,276.818 303.5,280.5C 303.432,275.376 305.432,271.376 309.5,268.5 Z"/></g>
<g><path style="opacity:1" fill="#ab6bfb" d="M 299.5,255.5 C 300.117,255.611 300.617,255.944 301,256.5C 301.351,260.942 302.184,264.942 303.5,268.5C 304.965,269.609 305.965,269.109 306.5,267C 305.39,264.263 305.223,261.429 306,258.5C 306.93,260.356 307.43,262.356 307.5,264.5C 307.957,265.298 308.624,265.631 309.5,265.5C 309.5,266.5 309.5,267.5 309.5,268.5C 305.432,271.376 303.432,275.376 303.5,280.5C 299.116,280.826 294.783,280.492 290.5,279.5C 292.623,277.255 293.623,274.588 293.5,271.5C 294.496,271.586 295.329,271.252 296,270.5C 297.759,266.991 298.926,263.325 299.5,259.5C 299.5,259.167 299.5,258.833 299.5,258.5C 299.5,257.5 299.5,256.5 299.5,255.5 Z"/></g>
<g><path style="opacity:0.004" fill="#fefffe" d="M 393.5,274.5 C 394.833,275.167 394.833,275.167 393.5,274.5 Z"/></g>
<g><path style="opacity:0.004" fill="#fefffe" d="M 469.5,275.5 C 470.833,276.167 470.833,276.167 469.5,275.5 Z"/></g>
<g><path style="opacity:0.004" fill="#fefffe" d="M 32.5,276.5 C 33.8333,277.167 33.8333,277.167 32.5,276.5 Z"/></g>
<g><path style="opacity:1" fill="#b285e7" d="M 293.5,271.5 C 293.623,274.588 292.623,277.255 290.5,279.5C 294.783,280.492 299.116,280.826 303.5,280.5C 303.027,281.906 302.027,282.573 300.5,282.5C 296.833,282.5 293.167,282.5 289.5,282.5C 289.5,281.167 289.5,279.833 289.5,278.5C 290.095,275.683 291.428,273.35 293.5,271.5 Z"/></g>
<g><path style="opacity:0.007" fill="#f3ebf6" d="M 289.5,278.5 C 289.5,279.833 289.5,281.167 289.5,282.5C 293.167,282.5 296.833,282.5 300.5,282.5C 296.689,283.645 292.689,283.812 288.5,283C 288.167,282.667 287.833,282.333 287.5,282C 288.085,280.698 288.751,279.531 289.5,278.5 Z"/></g>
<g><path style="opacity:0.004" fill="#fefffe" d="M 499.5,282.5 C 499.5,282.833 499.5,283.167 499.5,283.5C 498.83,283.019 498.83,282.685 499.5,282.5 Z"/></g>
<g><path style="opacity:0.004" fill="#fefffe" d="M 285.5,285.5 C 286.833,286.167 286.833,286.167 285.5,285.5 Z"/></g>
<g><path style="opacity:0.004" fill="#fefffe" d="M 66.5,287.5 C 67.8333,288.167 67.8333,288.167 66.5,287.5 Z"/></g>
<g><path style="opacity:0.004" fill="#fefffe" d="M 459.5,287.5 C 460.833,288.167 460.833,288.167 459.5,287.5 Z"/></g>
<g><path style="opacity:0.004" fill="#fefffe" d="M 19.5,289.5 C 20.8333,290.167 20.8333,290.167 19.5,289.5 Z"/></g>
<g><path style="opacity:0.004" fill="#fefffe" d="M 116.5,299.5 C 117.833,300.167 117.833,300.167 116.5,299.5 Z"/></g>
<g><path style="opacity:0.004" fill="#fefffe" d="M 203.5,300.5 C 204.833,301.167 204.833,301.167 203.5,300.5 Z"/></g>
<g><path style="opacity:0.004" fill="#fefffe" d="M 200.5,301.5 C 201.833,302.167 201.833,302.167 200.5,301.5 Z"/></g>
<g><path style="opacity:0.004" fill="#fefffe" d="M 26.5,310.5 C 27.8333,311.167 27.8333,311.167 26.5,310.5 Z"/></g>
<g><path style="opacity:0.004" fill="#fefffe" d="M 253.5,310.5 C 254.833,311.167 254.833,311.167 253.5,310.5 Z"/></g>
<g><path style="opacity:0.004" fill="#fefffe" d="M 488.5,327.5 C 489.833,328.167 489.833,328.167 488.5,327.5 Z"/></g>
<g><path style="opacity:0.004" fill="#fefffe" d="M 459.5,339.5 C 460.833,340.167 460.833,340.167 459.5,339.5 Z"/></g>
<g><path style="opacity:0.004" fill="#fefffe" d="M 485.5,346.5 C 486.833,347.167 486.833,347.167 485.5,346.5 Z"/></g>
<g><path style="opacity:0.004" fill="#fefffe" d="M 275.5,349.5 C 276.833,350.167 276.833,350.167 275.5,349.5 Z"/></g>
<g><path style="opacity:0.004" fill="#fefffe" d="M 137.5,352.5 C 138.833,353.167 138.833,353.167 137.5,352.5 Z"/></g>
<g><path style="opacity:0.004" fill="#fefffe" d="M 125.5,359.5 C 126.833,360.167 126.833,360.167 125.5,359.5 Z"/></g>
<g><path style="opacity:0.004" fill="#fefffe" d="M 391.5,365.5 C 392.833,366.167 392.833,366.167 391.5,365.5 Z"/></g>
<g><path style="opacity:0.004" fill="#fefffe" d="M 424.5,369.5 C 425.833,370.167 425.833,370.167 424.5,369.5 Z"/></g>
<g><path style="opacity:0.004" fill="#fefffe" d="M 128.5,372.5 C 129.833,373.167 129.833,373.167 128.5,372.5 Z"/></g>
<g><path style="opacity:0.004" fill="#fefffe" d="M 346.5,383.5 C 347.833,384.167 347.833,384.167 346.5,383.5 Z"/></g>
<g><path style="opacity:0.004" fill="#fefffe" d="M 85.5,384.5 C 86.8333,385.167 86.8333,385.167 85.5,384.5 Z"/></g>
<g><path style="opacity:0.004" fill="#fefffe" d="M 271.5,387.5 C 272.833,388.167 272.833,388.167 271.5,387.5 Z"/></g>
<g><path style="opacity:0.004" fill="#fefffe" d="M 457.5,400.5 C 458.833,401.167 458.833,401.167 457.5,400.5 Z"/></g>
<g><path style="opacity:0.004" fill="#fefffe" d="M 92.5,402.5 C 93.8333,403.167 93.8333,403.167 92.5,402.5 Z"/></g>
<g><path style="opacity:0.004" fill="#fefffe" d="M 440.5,414.5 C 441.833,415.167 441.833,415.167 440.5,414.5 Z"/></g>
<g><path style="opacity:0.004" fill="#fefffe" d="M 325.5,415.5 C 326.833,416.167 326.833,416.167 325.5,415.5 Z"/></g>
<g><path style="opacity:0.004" fill="#fefffe" d="M 14.5,419.5 C 15.8333,420.167 15.8333,420.167 14.5,419.5 Z"/></g>
<g><path style="opacity:0.004" fill="#fefffe" d="M 258.5,429.5 C 259.833,430.167 259.833,430.167 258.5,429.5 Z"/></g>
<g><path style="opacity:0.004" fill="#fefffe" d="M 135.5,433.5 C 136.833,434.167 136.833,434.167 135.5,433.5 Z"/></g>
<g><path style="opacity:0.004" fill="#fefffe" d="M 80.5,447.5 C 81.8333,448.167 81.8333,448.167 80.5,447.5 Z"/></g>
<g><path style="opacity:0.004" fill="#fefffe" d="M 390.5,456.5 C 391.833,457.167 391.833,457.167 390.5,456.5 Z"/></g>
<g><path style="opacity:0.004" fill="#fefffe" d="M 460.5,458.5 C 461.833,459.167 461.833,459.167 460.5,458.5 Z"/></g>
<g><path style="opacity:0.004" fill="#fefffe" d="M 33.5,462.5 C 34.8333,463.167 34.8333,463.167 33.5,462.5 Z"/></g>
<g><path style="opacity:0.004" fill="#fefffe" d="M 453.5,465.5 C 454.833,466.167 454.833,466.167 453.5,465.5 Z"/></g>
<g><path style="opacity:0.004" fill="#fefffe" d="M 266.5,480.5 C 267.833,481.167 267.833,481.167 266.5,480.5 Z"/></g>
<g><path style="opacity:0.004" fill="#fefffe" d="M 480.5,492.5 C 481.833,493.167 481.833,493.167 480.5,492.5 Z"/></g>
<g><path style="opacity:0.004" fill="#fefffe" d="M 190.5,494.5 C 191.833,495.167 191.833,495.167 190.5,494.5 Z"/></g>
<g><path style="opacity:0.004" fill="#fefffe" d="M 430.5,494.5 C 431.833,495.167 431.833,495.167 430.5,494.5 Z"/></g>
</svg>
